<?xml version="1.0" encoding="UTF-8"?>
<svg width="800px" height="600px" viewBox="0 0 800 600" xmlns="http://www.w3.org/2000/svg">
  <!-- Simple background with sky, mountains, and clouds -->
  <!-- Sky -->
  <rect x="0" y="0" width="800" height="600" fill="#87ceeb" />
  
  <!-- Distant mountains -->
  <path d="M0 400 L100 200 L200 350 L300 150 L400 300 L500 200 L600 350 L700 250 L800 400 L800 600 L0 600 Z" fill="#6b8e23" />
  
  <!-- Closer mountains -->
  <path d="M0 450 L150 300 L250 400 L350 250 L450 450 L550 300 L650 400 L800 350 L800 600 L0 600 Z" fill="#556b2f" />
  
  <!-- Clouds -->
  <ellipse cx="100" cy="100" rx="50" ry="30" fill="#ffffff" />
  <ellipse cx="130" cy="90" rx="40" ry="30" fill="#ffffff" />
  <ellipse cx="160" cy="105" rx="40" ry="25" fill="#ffffff" />
  
  <ellipse cx="500" cy="150" rx="60" ry="35" fill="#ffffff" />
  <ellipse cx="540" cy="140" rx="50" ry="30" fill="#ffffff" />
  <ellipse cx="580" cy="155" rx="45" ry="25" fill="#ffffff" />
  
  <ellipse cx="300" cy="70" rx="40" ry="25" fill="#ffffff" />
  <ellipse cx="330" cy="65" rx="35" ry="20" fill="#ffffff" />
  <ellipse cx="350" cy="75" rx="30" ry="20" fill="#ffffff" />
  
  <!-- Sun -->
  <circle cx="700" cy="100" r="50" fill="#ffff00" />
</svg>