<?xml version="1.0" encoding="UTF-8"?>
<svg width="32px" height="32px" viewBox="0 0 32 32" xmlns="http://www.w3.org/2000/svg">
  <!-- Brick tile -->
  <rect x="0" y="0" width="32" height="32" fill="#8b4513" />
  <rect x="0" y="8" width="32" height="2" fill="#703600" />
  <rect x="0" y="16" width="32" height="2" fill="#703600" />
  <rect x="0" y="24" width="32" height="2" fill="#703600" />
  <rect x="8" y="0" width="2" height="8" fill="#703600" />
  <rect x="16" y="0" width="2" height="8" fill="#703600" />
  <rect x="24" y="0" width="2" height="8" fill="#703600" />
  <rect x="0" y="8" width="2" height="8" fill="#703600" />
  <rect x="8" y="8" width="2" height="8" fill="#703600" />
  <rect x="16" y="8" width="2" height="8" fill="#703600" />
  <rect x="24" y="8" width="2" height="8" fill="#703600" />
  <rect x="0" y="16" width="2" height="8" fill="#703600" />
  <rect x="8" y="16" width="2" height="8" fill="#703600" />
  <rect x="16" y="16" width="2" height="8" fill="#703600" />
  <rect x="24" y="16" width="2" height="8" fill="#703600" />
  <rect x="0" y="24" width="2" height="8" fill="#703600" />
  <rect x="8" y="24" width="2" height="8" fill="#703600" />
  <rect x="16" y="24" width="2" height="8" fill="#703600" />
  <rect x="24" y="24" width="2" height="8" fill="#703600" />
</svg>